<?xml version="1.0" encoding="UTF-8" standalone="no"?>
<!DOCTYPE svg PUBLIC "-//W3C//DTD SVG 1.1//EN" "http://www.w3.org/Graphics/SVG/1.1/DTD/svg11.dtd">
<svg width="100%" height="100%" viewBox="0 0 2400 2400" version="1.1" xmlns="http://www.w3.org/2000/svg" xmlns:xlink="http://www.w3.org/1999/xlink" xml:space="preserve" xmlns:serif="http://www.serif.com/" style="fill-rule:evenodd;clip-rule:evenodd;stroke-linejoin:round;stroke-miterlimit:2;">
    <g transform="matrix(6.16227,0,0,6.16227,1621.66,1972.23)">
        <g id="Layer-1" serif:id="Layer 1">
            <path d="M0,-250.834C0,-250.834 -5.568,-253.294 -7.381,-256.791C-9.319,-260.528 -10.907,-264.424 -11.169,-268.668C-11.466,-273.497 -11.27,-278.45 -11.795,-283.304C-12.331,-288.267 -13.79,-293.073 -16.446,-297.323C-10.878,-296.158 -11.655,-295.381 -5.698,-294.474C0.259,-293.568 3.237,-293.438 7.899,-292.402C12.561,-291.366 22.273,-286.575 24.086,-284.244C25.899,-281.913 26.806,-274.92 26.676,-271.553C33.928,-275.179 36.906,-276.992 48.95,-276.992C60.993,-276.992 66.691,-272.848 72.518,-268.575C78.345,-264.302 79.252,-263.525 80.417,-262.23C81.583,-260.935 91.165,-243.323 93.885,-241.122C96.604,-238.92 100.101,-233.481 104.115,-231.41C108.129,-229.338 109.036,-227.784 109.683,-226.359C110.331,-224.935 109.942,-222.733 109.683,-220.791C109.424,-218.848 107.741,-213.151 103.209,-209.654C98.676,-206.158 89.223,-197.222 84.302,-195.021C79.381,-192.82 68.763,-189.841 63.453,-189.323C58.144,-188.805 53.094,-188.805 50.504,-187.769C47.914,-186.733 45.065,-184.402 44.806,-182.589C47.655,-182.589 47.396,-181.553 48.173,-181.165C48.95,-180.776 54.518,-171.323 55.942,-167.956C57.367,-164.589 63.842,-153.323 64.36,-151.899C60.604,-153.582 57.237,-157.597 56.331,-157.467C55.424,-157.338 55.683,-155.654 56.59,-154.23C57.496,-152.805 63.583,-136.23 63.583,-136.23L62.158,-137.136C62.158,-137.136 64.36,-122.892 64.489,-121.338C62.417,-124.575 61.899,-126.776 61.899,-126.776C61.899,-126.776 61.77,-116.024 61.381,-115.314C67.597,-114.992 85.338,-113.697 87.928,-112.92C90.518,-112.143 92.072,-111.625 94.273,-109.553C96.475,-107.481 99.583,-105.28 101.396,-101.784C103.209,-98.287 102.95,-94.532 102.561,-91.553C102.173,-88.575 99.194,-81.971 96.475,-80.417C94.921,-83.136 95.957,-83.784 94.532,-83.913C93.108,-84.043 92.978,-79.899 91.683,-80.417C90.388,-80.935 91.942,-86.374 90.129,-88.316C88.317,-90.258 84.432,-95.568 78.604,-96.474C72.777,-97.381 67.597,-97.769 65.784,-96.992C63.971,-96.215 41.568,-75.625 40.403,-74.719C38.072,-74.071 38.59,-73.165 36.518,-74.719C34.446,-76.273 33.151,-78.863 31.338,-78.474C29.525,-78.086 27.453,-76.143 27.194,-74.46C26.935,-72.776 26.547,-69.151 26.547,-67.338C26.547,-65.525 27.065,-62.028 27.453,-60.733C27.842,-59.438 46.619,-24.992 48.302,-20.589C49.986,-16.187 53.482,-6.992 54.518,-2.33C55.554,2.331 56.072,9.842 55.813,13.468C55.554,17.094 55.036,28.231 49.727,35.483C44.417,42.734 39.885,47.137 36.518,48.562C37.683,50.245 42.604,50.375 45.324,51.411C48.043,52.447 57.755,58.274 60.863,59.957C63.971,61.641 67.338,64.878 68.115,66.173C68.892,67.468 68.245,67.986 68.245,67.986C68.245,67.986 62.935,65.526 61.122,64.231C59.309,62.936 55.893,61.688 55.36,61.706C55.036,61.716 55.133,61.835 55.295,62.029C56.262,63.189 58.532,65.785 58.144,66.562C55.942,66.303 49.174,61.9 46.796,61.641C44.417,61.382 38.331,60.475 36,60.475C33.669,60.475 21.626,56.461 11.007,56.849C0.388,57.238 -21.237,62.288 -25.122,62.288C-29.007,62.288 -32.374,60.346 -32.892,58.921C-33.41,57.497 -31.209,53.483 -32.115,51.929C-33.022,50.375 -34.964,48.303 -35.871,48.044C-36.777,47.785 -38.719,46.749 -39.367,46.749C-40.014,46.749 -42.863,50.504 -43.77,50.504C-44.676,50.504 -56.913,41.051 -61.478,37.166C-66.043,33.281 -81.324,18.001 -90.906,10.231C-100.489,2.461 -123.799,-15.151 -131.568,-20.33C-139.338,-25.51 -173.525,-47.784 -181.424,-56.33C-189.324,-64.877 -205.381,-79.769 -211.597,-87.41C-217.813,-95.05 -237.367,-125.999 -242.417,-144.129C-247.468,-162.258 -247.727,-178.057 -247.597,-185.05C-247.468,-192.043 -241.77,-229.726 -234.129,-246.949C-226.489,-264.172 -217.295,-281.395 -210.432,-288.129C-203.568,-294.863 -183.496,-306.776 -169.122,-310.92C-159.151,-314.028 -153.194,-315.453 -146.331,-316.23C-139.468,-317.007 -116.158,-318.431 -113.698,-318.82C-125.223,-314.417 -132.604,-312.345 -132.604,-312.345C-132.604,-312.345 -107.094,-309.366 -96.604,-306.776C-86.115,-304.187 -74.273,-298.748 -63.619,-291.496C-81.324,-292.143 -77.439,-290.719 -77.439,-290.719C-77.439,-290.719 -72.445,-286.834 -68.791,-283.338C-65.137,-279.841 -55.165,-264.561 -51.799,-253.812C-48.432,-243.064 -46.36,-213.021 -47.525,-203.438C-48.691,-193.856 -52.964,-181.553 -55.424,-177.151C-57.885,-172.748 -67.986,-159.669 -77.309,-154.359L-76.273,-161.352L-79.252,-161.222C-79.252,-161.222 -84.302,-154.489 -87.799,-152.546C-91.295,-150.604 -99.194,-147.107 -100.23,-147.107C-101.266,-147.107 -97.252,-149.956 -94.403,-158.892C-91.554,-167.827 -88.964,-168.733 -90.259,-175.208C-91.554,-181.683 -98.547,-188.158 -108.777,-188.417C-119.007,-188.676 -122.633,-185.827 -128.072,-182.848C-133.511,-179.87 -137.396,-174.043 -141.281,-167.309C-145.165,-160.575 -152.417,-142.316 -149.827,-123.41C-147.237,-104.503 -135.065,-88.963 -135.065,-88.963C-135.065,-88.963 -128.331,-80.158 -124.964,-77.568C-121.597,-74.978 -102.561,-56.33 -98.158,-52.445C-93.755,-48.561 -80.417,-34.963 -77.957,-31.726C-75.496,-28.489 -74.46,-26.028 -73.424,-25.64C-72.388,-25.251 -71.482,-24.733 -70.964,-24.992C-70.446,-25.251 -69.54,-26.028 -70.317,-28.23C-71.094,-30.431 -72,-33.539 -71.871,-34.704C-71.741,-35.87 -65.597,-57.884 -63.619,-65.136C-61.64,-72.388 -52.187,-99.971 -48.691,-108.647C-45.194,-117.323 -29.525,-154.359 -24.216,-168.086C-18.906,-181.812 -11.525,-201.755 -10.23,-210.561C-8.935,-219.366 -2.719,-237.625 -1.942,-241.251C-1.165,-244.877 0,-250.834 0,-250.834" style="fill:white;fill-rule:nonzero;"/>
        </g>
    </g>
</svg>
